# xmcd
#
# Track frame offsets: 
#        150
#        16269
#        26597
#        36191
#        47115
#        62391
#        78721
#        81096
#        99736
#        113264
#        125383
#        136913
#        146955
#        152532
#        167628
#
# Disc length: 2407 seconds
#
# Revision: 0
# Processed by: cddbd v1.5.2PL0 Copyright (c) Steve Scherf et al.
# Submitted via: ExactAudioCopy v1.3
#
DISCID=ba09650f
DTITLE=Warren Fahey - Australia's On The Wallaby: Songs Of Pomp And Ci
DTITLE=rcumstance
DYEAR=2009
DGENRE=country
TTITLE0=Australia's On the Wallaby
TTITLE1=A Thousand Miles Away
TTITLE2=Ta Ra Land Boom de Ay
TTITLE3=On the Wallaby
TTITLE4=The Gumtree With Six Branches
TTITLE5=TLittle Billy Hughes
TTITLE6=Canberra
TTITLE7=Waltzing Matilda
TTITLE8=The Sydney Exhibition
TTITLE9=Advance Australia Fair
TTITLE10=Dave's Snake Gully Swagger
TTITLE11=Snake Gully Home of Mine
TTITLE12=The Dog's Meeting
TTITLE13=The Parson and the Clerk
TTITLE14=The Blackfella's Waltzing Matilda
EXTD=
EXTT0=
EXTT1=
EXTT2=
EXTT3=
EXTT4=
EXTT5=
EXTT6=
EXTT7=
EXTT8=
EXTT9=
EXTT10=
EXTT11=
EXTT12=
EXTT13=
EXTT14=
PLAYORDER=
